<?xml version="1.0" encoding="UTF-8" standalone="no"?>
<svg
   xmlns:dc="http://purl.org/dc/elements/1.1/"
   xmlns:cc="http://creativecommons.org/ns#"
   xmlns:rdf="http://www.w3.org/1999/02/22-rdf-syntax-ns#"
   xmlns:svg="http://www.w3.org/2000/svg"
   xmlns="http://www.w3.org/2000/svg"
   xmlns:sodipodi="http://sodipodi.sourceforge.net/DTD/sodipodi-0.dtd"
   xmlns:inkscape="http://www.inkscape.org/namespaces/inkscape"
   version="1.1"
   id="svg2"
   xml:space="preserve"
   width="5333.3335"
   height="5333.3335"
   viewBox="0 0 5333.3335 5333.3335"
   sodipodi:docname="bx-menu.svg"
   inkscape:export-filename="/home/luan/www/react/tcc/LadoDown/src/assets/crescimento.png"
   inkscape:export-xdpi="96"
   inkscape:export-ydpi="96"
   inkscape:version="1.0.2 (e86c870879, 2021-01-15)"><metadata
     id="metadata8"><rdf:RDF><cc:Work
         rdf:about=""><dc:format>image/svg+xml</dc:format><dc:type
           rdf:resource="http://purl.org/dc/dcmitype/StillImage" /><dc:title></dc:title></cc:Work></rdf:RDF></metadata><defs
     id="defs6" /><sodipodi:namedview
     pagecolor="#ffffff"
     bordercolor="#666666"
     borderopacity="1"
     objecttolerance="10"
     gridtolerance="10"
     guidetolerance="10"
     inkscape:pageopacity="0"
     inkscape:pageshadow="2"
     inkscape:window-width="1920"
     inkscape:window-height="1016"
     id="namedview4"
     showgrid="false"
     inkscape:zoom="0.080249998"
     inkscape:cx="1310.2057"
     inkscape:cy="3642.4972"
     inkscape:window-x="0"
     inkscape:window-y="27"
     inkscape:window-maximized="1"
     inkscape:current-layer="g12" /><g
     id="g10"
     inkscape:groupmode="layer"
     inkscape:label="ink_ext_XXXXXX"
     transform="matrix(1.3333333,0,0,-1.3333333,0,5333.3333)"><g
       id="g12"
       transform="scale(0.1)"><path
         d="m 33473.6,4608.8 c -70.7,-30.2 -146.5,-2 -223,24.7 -264.9,92.8 -496.9,215 -596.2,316.3 12.9,63 55.9,101.4 88.4,80.1 71.1,-46.7 122.6,-61.6 192.3,18.8 69.7,80.2 153.9,70.2 246,16.1 98.9,-58 183.3,-135.9 264.8,-226.3 50.8,-56.2 59.1,-127.2 27.7,-229.7 m -1350.7,2485 c -15.4,13.1 -18,55.2 -37.2,120.9 148.2,17.6 229.2,-81.4 346.6,-170.2 -82.6,-23.6 -261.9,9.2 -309.4,49.3 m 131.8,-2067.1 c -119.4,70.5 -239.1,115.9 -371.5,88.2 -34.3,-7.2 -74,24.9 -109.7,44.3 -58.6,31.8 -116,67.9 -192.5,113.2 -31.4,120.2 -63.2,232.3 -88.8,347.1 -5.4,24.7 5.6,69.5 20.2,86.2 14.7,16.7 50.1,24.4 64.7,11.1 73,-66.6 144.5,-137.6 212,-214.6 48.3,-55.1 89.6,-121.9 136.9,-187.6 21.3,15.3 41.5,31.3 62.5,44.9 151.1,97.6 211.2,81 307,-95.2 33.2,-61.1 56.9,-132 83.4,-194.8 -31.8,-91.1 -82.5,-67.4 -124.2,-42.8 m 893.6,1469.2 c 19.9,48.9 48.9,101.6 91.8,80.6 115.8,-56.6 204.6,-160.2 246,-326.8 3.8,-15.6 -9.1,-39.2 -16.8,-69.2 -114.8,-15.8 -204.6,87.1 -304.8,139.9 -37.8,20 -43.1,109.2 -16.2,175.5 m 1107.8,664.6 c 38,11.8 77.2,19.8 116,20.8 72.6,1.8 81.9,-20.4 81.7,-220.3 -79.4,28.6 -139.4,45.3 -196.2,74 -15.1,7.6 -24.8,50.8 -28.3,79.7 -1.7,13.4 15.3,42.3 26.8,45.8 M 31226.7,5297.9 c -4.1,-20.2 -37.3,-30.4 -58.2,-42.4 -6.5,-3.7 -15.9,0.6 -23.7,3.3 -302.6,103.7 -605.4,207 -907.7,312.6 -38.1,13.3 -73.9,39.4 -154.7,83.7 147.4,144.8 259.7,206 408.5,161.6 236.8,-70.5 450.9,-220.1 675.4,-333 21.3,-10.6 46.4,-35.2 54.1,-61.9 10.7,-37.4 13.8,-85.6 6.3,-123.9 m -5861.5,23119 c -1.1,-6.9 -27.3,-6.3 -41.8,-9.2 -91.9,-140.7 -207.9,-73.5 -315.8,-67.1 -38.6,2.3 -89.6,53.2 -112.8,33.1 -77.5,-67.5 -154.3,-48.1 -230.7,-28.6 -39.1,9.9 -78.2,19.8 -117.1,18.1 -111.1,-4.8 -222.5,9.9 -333.9,12.3 -34.9,0.8 -70,-2.2 -105,-5.3 -98.9,-8.4 -197.7,-16.9 -292.8,58.4 -17.7,14 -42.8,7.8 -68.7,1.7 -16.2,-3.9 -32.7,-7.7 -47.8,-6.7 -66.7,4.9 -120.9,39.2 -144.9,160 45,8.9 83,24.6 120.5,22.5 239.6,-12.9 479.1,-28.6 718.5,-45.4 263.7,-18.4 527.4,-37.4 791,-59.7 46.8,-4 92.8,-25.7 139.1,-39.2 24.1,2.4 49.8,4.3 42.2,-44.9 m -267.9,-2914.2 c -57.8,-67.9 -122.4,-13.2 -174.9,10.5 -73.6,33.1 -142,85.7 -221.2,102.9 -23,4.9 -57.2,59.4 -56.5,89.8 1,45 28.7,88.8 43.5,129.2 29.3,-10.1 49.7,-8.3 58.6,-21.4 75.2,-110.8 165.1,-155.9 275.4,-149.9 69.4,3.9 99.3,-57.1 75.1,-161.1 m -1321,478.2 c 142.8,184.2 215.4,170 295,-26 -90.5,8 -173.3,15.2 -295,26 m -141.1,67.7 c -179.1,34.5 -327.3,62 -475.3,91.8 -137.3,27.6 -254.7,108.5 -358.2,273.4 86.4,61.8 176.2,58.8 250.2,26.1 123.8,-54.8 249.1,-64.8 375.1,-85 54.1,-8.6 108.8,-31.4 158.6,-62.1 25.5,-15.7 49.3,-59.1 58.4,-97.1 8.5,-35.2 -3.7,-79.9 -8.8,-147.1 m -252.9,2593.1 c 9.2,-2.1 15,-34.9 22.4,-53.4 -95.9,-137 -215.5,-120.4 -333.2,-89.7 -30.7,8 -55.5,58.5 -91.1,98.7 102.9,51.3 284.8,70 401.9,44.4 M 11148.7,7865.6 c -5.8,3.3 -11.7,6.5 -17.5,9.7 6.4,11.1 12.9,22.1 19.4,33.1 3.3,-7.4 9.4,-15.1 9.1,-22.1 -0.4,-7.2 -7.1,-13.8 -11,-20.7 m 1840.7,2830.3 c 84.3,-14.8 141.6,-24.9 199,-35 -71.2,-103.9 -134.6,-112.9 -199,35 m -225.3,-94 c -71.2,-22 -144.1,-71.3 -232.2,29.7 84.4,89.6 154.5,62.4 222.5,49.6 7.8,-1.5 14,-33.7 18,-52.8 1.5,-7.5 -4.1,-25.2 -8.3,-26.5 m -6387.5,2145.3 c -65.61,-193.8 -155.66,-232 -281.38,-115.2 -39.5,36.7 -69.92,91.8 -107.58,133.2 -37.06,40.6 -77.96,74.6 -111.98,106.6 -19.51,102.3 38.95,115.4 72.52,153.8 92.45,-20.6 185.06,-40.3 277.29,-62.4 67.4,-16.2 116.58,-69.2 149.14,-151.1 1,-22.7 7.78,-47.9 1.99,-64.9 M 4274.71,29227.9 c -12.76,-48.3 1.49,-108.9 -2.9,-163.2 -6.78,-84.1 -40.76,-142.6 -100.1,-170.2 -52.94,-24.7 -104.63,-65.1 -158.71,-72.3 -112.84,-15.2 -197.68,-72.6 -243.99,-223.8 -8.43,-27.5 -31.85,-59.7 -51.72,-64.9 -135.25,-35.4 -215.47,-177 -309.02,-294.7 -105.89,-133.2 -226.49,-101.6 -293.68,74.3 -11.08,29 -20.11,60.6 -25.44,92.4 -7.14,42.8 -9.73,86.9 -16.65,153.1 56.17,78.9 113.6,170.6 179.19,249 70.32,84.1 153.26,100.2 245.83,67.3 126.31,-45.1 127.34,-39.3 164.27,158.3 1.89,10.2 6.57,19.4 12.65,36.9 167.13,145.8 362,210.7 552.66,289.1 34.14,14 74.45,-0.7 108.22,-2 18.74,-100.5 -50.12,-89.5 -60.61,-129.3 M 25622,28534 c 3.2,4 11.5,0.2 17.5,-0.3 -0.4,-8.3 1.5,-20.2 -1.7,-24.1 -3.3,-4 -11.5,-0.2 -17.6,0.2 0.4,8.4 -1.4,20.2 1.8,24.2 m 441.2,-41.7 c 268.3,-82.3 542.2,-61.7 812.4,-103.6 222.3,-34.6 445.7,-57.2 668.4,-87.8 22.3,-3.1 43.8,-23 64.6,-37.8 5,-3.6 9.6,-19.4 8,-27.1 -4.1,-20 -8.7,-51.1 -18.4,-55.5 -29.5,-13.5 -61.6,-23.6 -92.4,-22.4 -104.1,3.9 -208,15.9 -312.1,20.1 -423.7,16.9 -843.8,80.8 -1262.6,169.1 -63.5,13.4 -103,47 -132.1,149.8 29.2,-0.1 58.1,1.9 86.5,3.8 61.9,4.3 121.5,8.6 177.7,-8.6 m 2661.8,-779.2 c 124.1,38.9 246.3,31.5 414.8,-46.5 -310.3,-158.3 -310.3,-158.3 -435.6,-2.9 6.8,17.1 11.7,46.5 20.8,49.4 m 333.1,537.4 c 4.8,-0.9 6.5,-35.3 17.3,-101.4 -28.4,14.9 -51.2,21.4 -68.5,38.5 -7.9,7.7 -4.9,36.5 -6.8,55.8 19.4,3.2 39.2,10.4 58,7.1 m 1056.2,-947.8 c -161.5,-0.2 -296.3,33 -430.5,73.6 -109.3,33.1 -109.2,33.6 -223.9,147.1 238.5,-1.6 519.2,-89.8 654.4,-220.7 m -367.2,1369.7 c 52.5,-8.9 99.2,-17.6 146,-24.6 164.5,-24.6 321.9,-54.9 493.5,10.5 224.3,85.4 460.1,59.6 677.4,-91.2 14,-9.7 29.6,-42.8 37.2,-38.8 183.9,97.3 316.5,-120.8 481.2,-150.7 157.2,-28.5 311.6,-99.7 462.8,-170.2 63.7,-29.6 124.2,-36 187.9,-36.9 80.7,-1.2 133,-60.1 168.5,-154.2 63.5,37 125.7,79.4 191.1,107.6 51.8,22.4 94.6,-21.3 123.9,-77.6 33.2,-63.6 18.9,-129.7 -16,-181.9 -59.7,-89.2 -123.5,-173.1 -193.6,-270.2 -63.8,8.9 -135.3,16.5 -205.8,32.7 -7,1.6 -7.5,56.7 -10.5,83.7 -134.8,-109.5 -133.4,-94.7 -294.1,-65.6 -253,45.7 -502.1,133.8 -758.9,138.7 -83.5,1.7 -152.8,43.7 -218.2,119.4 -96.4,111.5 -99.9,105.7 -247.5,137.7 -1.5,-72.3 -2.9,-142.7 -4.9,-233.7 -196.6,3 -381.2,59.9 -579.6,103.6 -12.3,65.8 -25.9,138.6 -42.3,225.8 -88.6,100.7 -178.5,189.5 -317,113.7 -81.7,-44.7 -146.1,49.9 -217.8,138.5 47,97.6 90.1,187 136.7,283.7 m 2401,5221.1 c 182.6,-17.3 346.9,-45.9 508.2,-125.6 150.3,-74.2 308.3,-118.3 462.1,-179.3 29.4,-11.7 60,-33.4 81.5,-62.5 32.5,-43.8 35.3,-96.8 -13.9,-152.3 -47.8,46.7 -98.9,96.6 -157.3,153.7 -184.5,-30.2 -376.1,-49.1 -563.4,40.3 -21.1,10.1 -47.1,9.1 -69.5,3.4 -137.1,-34.9 -202.8,81.1 -252.9,228.4 -5.8,17.3 1.9,43.3 5.2,93.9 m -889.3,-6940.4 c -39.4,20.5 -75.9,24.6 -90.5,51.5 -12.3,22.7 0.9,71.9 2.8,109.3 28.2,-15.6 60.5,-24.4 82.8,-50 11,-12.6 3.5,-56.4 4.9,-110.8 m -536.7,161.9 c 140,67.7 185.7,58 301,-56.1 -106.2,-86.3 -198.3,-42.2 -301,56.1 m -462.7,80.8 c -22.9,6.3 -13.6,106.8 10.9,107.2 36.2,0.4 73.1,-15.4 108.4,-30.2 5.2,-2.2 3.3,-37 6.4,-80.8 -12.8,0.1 -25.5,-0.5 -38.1,-1.1 -30.1,-1.4 -59.5,-2.9 -87.6,4.9 M 36736,18958.4 c 164.5,-139.2 346.1,-239.1 468.2,-455.2 0.6,-8.2 1.1,-15.9 0.5,-17.7 13.2,-51 -5.2,-101 8.1,-152 -87.6,-28.2 -110.1,69.3 -172.6,121.3 -74.7,62.2 -139.7,126.2 -234.9,135.6 -92.1,9.1 -175.8,86.4 -274.8,173.3 78.5,74.4 141.2,133.7 205.5,194.7 m 551.7,-6507.1 c -63.9,180.9 -177.4,280.9 -286.5,395.4 -68.9,72.5 -132.8,163.1 -181.1,262.2 -64.6,132.5 -137.2,244 -237.3,325.2 -36.8,29.8 -62.6,85.6 -97.7,135.7 161.7,94.2 161.7,94.2 281.4,262.9 -18.5,194 -19.6,396.9 -120.3,559.5 -3,175.6 -88,300.6 -141.7,445.2 -14.7,39.3 -25.6,82.1 -34.8,124.7 -41.7,192.6 45.3,442.6 181.5,517.7 35.8,19.7 74.8,28.3 123.5,46.1 14.2,128.1 28.9,246.9 39.8,366.4 5,54.4 -8.2,116 5.4,164.3 37.3,132.8 84.3,260.5 127.8,390 46.5,138.5 42.2,187.3 -43.5,289.8 -65.8,78.6 -138.1,146.7 -212.7,225.1 13.9,58.5 40.3,112.4 35.6,160.5 -15.2,156 14.3,266.8 103.4,378.2 122,152.7 140.6,369.8 109.7,588.3 -11.9,84.4 -41,164.1 -61,241.1 39.4,69.9 80.2,50 101.7,0.9 37.1,-84.5 60.5,-180.2 93.4,-268.6 18.1,-48.7 43.8,-92.5 91.8,-79.3 27,7.5 53.7,16.9 76.2,24.1 49.5,-107.3 -1.2,-259.9 111.2,-293.4 12,-79.6 24,-159.2 36,-238.7 36.8,267 65,530.1 -98.1,741.8 -22.2,28.9 -31.6,76.8 -46.9,115.9 l -5.7,25.4 c -12.4,48.9 -10.5,75.7 -23,124.6 -1.2,2.3 -3.6,11.4 -6,20.5 29.9,103.9 -6.6,177.4 -68.6,234.2 -87.1,79.8 -178,151.4 -264.6,232.3 -67.4,63 -76.9,128 -31.4,227.6 51.1,111.7 124.1,208.5 160.3,327.7 64.7,213.2 109.8,438.5 51,673 -3.7,14.6 -26,20.1 -39.7,29.8 -13.7,-48.9 -27.4,-97.8 -47.2,-168.4 -299.3,150 -536.7,421.1 -767.6,553.5 -16.7,214.5 -31.1,380.7 -42.1,547.3 -8.4,127.8 -40.7,250.7 -112.8,319.8 -110.5,105.7 -203.9,253.7 -347.3,289 -84.1,20.7 -154.2,126 -251.9,77.4 -18.4,-9.1 -48,7.1 -67.5,23.2 -68,56 -133.8,117 -210,184.7 8.4,75 21.4,149.4 23.5,224.2 1.2,43.7 -19,81.9 -57.7,74.1 -11.7,-63.9 -23.2,-126.5 -33.7,-184 -232.1,0.2 -326.2,38.9 -572.2,230.4 -1.8,63.5 2.7,131.8 -7.5,195.6 -12.3,76.8 -37.6,158.9 -101.6,170.5 -137.6,25.1 -259.5,186.6 -413.5,84.9 -28.3,-18.7 -76.3,14.8 -114,30 -230.1,92.1 -456.5,208 -690.2,274.4 -400.7,113.6 -781,338.4 -1189.1,407.1 -15.2,2.6 -30,15.7 -43.8,26.7 -115.7,91.9 -245.6,101.2 -373,118.8 -135.1,18.7 -274.4,3.9 -394.5,117 -36,-9.3 -70,6.7 -104.1,22.7 -41.6,19.6 -83.6,39.1 -129.7,12.3 -18.7,-10.8 -51.3,-5.8 -67.3,10.8 -61.4,63.9 -129.5,62.7 -201.7,77.5 -147.5,30.3 -290.2,102.9 -435.4,155.4 -92.8,33.6 -185.4,72.2 -280,91.8 -333,68.9 -656.5,199.9 -990.6,267.6 -394.2,79.8 -782.9,212.6 -1174.5,318.5 -227.9,61.6 -457.5,111.1 -685.3,174.1 -227.6,62.9 -295.6,190.8 -295.4,537.6 83.4,64.8 169.3,27.8 254.6,3.6 180.4,-51.3 359.7,-110.8 541.1,-154 221.2,-52.7 441.6,-105.4 661.2,-173.7 383.3,-119.3 772.9,-199.7 1159.4,-300 140.4,-36.4 280.3,-77.9 418.7,-126.5 193.8,-68.1 385.9,-145.6 579,-217.9 193.5,-72.5 381.1,-17.7 567.8,52.9 73.3,27.8 130.7,72.9 149.8,190.5 23.6,145.5 110.9,185.2 203.7,185.9 54.4,0.4 108.7,-31.3 163.6,-44.2 12.7,-3 27.6,11.6 41.7,18.2 4.4,74.1 8.9,148.4 14.4,239.9 77.2,-20.8 138.9,-36.3 200.3,-54.3 55,-16.1 109,-41 164.4,-51.3 82.7,-15.4 143.4,41.3 159.8,153.9 25.3,173.5 50.7,348.1 62.3,523.9 4.6,71.2 -23.3,148.7 -42.7,220.1 -39,143.6 -82.8,284.6 -123.7,427.3 -23.2,81.5 -44.5,164.1 -63.2,233.7 -194.5,92.6 -324.1,-19.7 -428.4,-208.6 -128,-3.2 -243.6,7 -362.3,58.5 -165.2,71.9 -337.4,115.1 -507.9,161.7 -432.4,118.2 -865.8,229.7 -1298.4,347.6 -125.2,34.1 -247.4,94.8 -373.5,118.2 -205.8,38.5 -393.4,192 -607.1,177 -22,-1.5 -44.3,26.1 -67.6,33 -203.1,61.2 -403.5,127.5 -616.8,71.7 -98.1,-25.7 -204.9,-0.9 -305.4,54.8 -73.2,40.6 -154.5,64.1 -233.4,71.5 -159.5,15.1 -313.1,52 -466.8,118.3 -151.2,65.2 -307.9,110.2 -468,130.2 -239.8,29.9 -473.8,106.9 -705.1,197.4 -15.5,6 -25.1,41.1 -50.7,86.1 137.6,9.4 262.9,56.9 370.9,16.2 158.8,-59.7 317.5,-59.5 476.5,-83.3 199.6,-29.9 398.8,-66.7 598.3,-99.1 111.4,-18.1 223.2,-49.6 334.4,-46.6 387,10.5 758.7,-121.7 1133.3,-222.5 377.9,-101.7 752.7,-225.1 1129.3,-335.9 250.5,-73.7 508.1,-114.1 750.8,-220.6 246.8,-108.2 501.7,-144.3 750.1,-230.1 190.4,-65.7 365.5,-16.1 516.9,166.2 10.5,12.6 30.3,10.2 56.1,17.9 190.4,-77.9 391.9,-151.1 588.3,-244.7 87.6,-41.9 170.1,-37.3 258.5,-39.4 84.2,-1.9 167.7,-58.6 251.6,-90.2 7.1,-2.7 16,1.4 23.7,4.2 131.4,46.6 234.8,-30.5 331.7,-141.3 10.4,-12 29.6,-9.3 52.3,-15.6 42.8,34.5 90.5,73 129.6,104.5 148.3,-10.4 247,-126.2 326.9,-227.2 162.5,26.7 316.8,9.6 443.1,83.9 82.5,48.6 163,39.5 244.1,30.4 62,-6.9 124.4,-13.9 188.3,4.9 -5.5,64.2 -10,115.4 -13.2,152.5 -91.8,39.1 -167,71.1 -239.7,102 -42.7,157.8 -82.7,302.4 -120.8,448 -38.7,147.7 -105.5,231.4 -224.7,256.9 -316.2,67.9 -630.7,151.5 -945.6,230.4 -14.5,3.6 -27.1,21.9 -40.6,33.3 -1.1,172.6 -1.1,172.6 214.5,421.5 14.4,-7.2 29.8,-12 42.7,-22.7 13.7,-11.1 23.9,-30.2 37.5,-41.7 103.8,-88.2 210.8,-138.1 336,-88.1 135.7,54.3 269.4,37.2 395.9,-58.2 73.9,-55.8 153.5,-63 234.7,-40.6 70,19.3 139.6,41.1 192.8,56.8 49.7,94.2 85.5,179.3 133.3,248.2 60.1,86.6 70.3,189.6 28.8,274.2 -59.5,121.5 -63,248.3 -63.4,382.6 -0.3,114.2 -15.1,222 -79.9,300 -292.9,59.6 -312.4,80.6 -349,381.3 75.3,125 165.7,228.1 285.1,275.6 167.1,-148.8 167.1,-148.8 347.1,-24.6 7.1,264.1 118.2,522.5 54.1,804.7 -280.4,119.4 -548.5,250.9 -814.7,416.6 -10.1,61.3 -16.6,127.7 -32.4,189.4 -22.3,87.1 -91.1,80.3 -137.9,118.4 -52.3,42.5 -72.6,140.4 -34.5,201.5 46.4,74.3 101,140.5 157.5,200.6 60.6,64.5 127.4,117.9 198,181.9 31.1,-30.7 62.7,-63.9 95.8,-94.1 57.9,-53.1 63.6,-120.8 34.3,-202.4 -10.4,-29.1 -16.4,-61.2 -35.7,-135.4 64.2,57.1 82.9,76.3 103.2,91.2 97.1,71.1 160.5,72.7 205.9,-41.9 55.2,-139.3 135.2,-174.4 232.1,-187.9 75.3,104.4 147.6,204.7 213.3,295.8 -11.7,196.9 -105.1,283.6 -194.5,383 -154.1,-104.6 -260.3,-8.3 -354.6,138.5 -10,-50.4 -25.9,-99.1 -71.2,-89 -75.4,17 -146.7,76.3 -227.4,22.3 -11.4,-7.7 -50.4,22.7 -54.4,43.7 -7,36.5 -7.6,97.4 8.5,116.1 38.1,44.3 85.7,73 130.3,106.6 -29.1,35.2 -60.2,91.7 -85.6,87.2 -161,-29 -290.6,106.3 -437.9,144.4 -83.7,21.6 -143.7,92.3 -171.8,199.3 49.3,183 98.1,358.3 143.7,535.1 24,93.3 5.4,182.3 -45.9,243.8 -40.9,49.1 -92.4,89.9 -144.1,111.2 -284.9,117.1 -570.9,228.7 -857.2,338.6 -115.2,44.3 -233.4,73.7 -347.9,121 -75.4,31.1 -116.7,138.6 -203.1,168.6 -76.5,26.6 -140.1,124 -209.8,190.5 -55.5,-35.5 -79.8,-146.4 -160.9,-122.4 -124.8,36.8 -256,47.1 -374.3,107.2 -167.3,85 -338.8,134 -511.3,185.3 -85.6,25.4 -168.3,70.3 -251.8,108.3 -121.1,55.2 -239.9,121.4 -362.9,166 -185.7,67.3 -377.2,105.7 -560.8,182.1 -360.7,150 -730.3,240.4 -1098.4,341.7 -141,38.8 -279.6,105.6 -426.9,87.2 -215.4,128.4 -449.1,154.7 -674.4,226.9 -148.2,47.4 -304.3,50.4 -450.3,106.3 -425.4,162.9 -865,222.6 -1293.9,359.3 -224.8,71.7 -454.1,115.6 -680.7,176.9 -78.4,21.3 -153.6,72.9 -232.2,83.6 -390.4,53.1 -771.4,198.7 -1164.6,223 -31.8,2 -64.3,8.1 -94.8,20.3 -184.9,73.6 -376.8,89.7 -564.3,136.4 -315.8,78.7 -631.4,141.1 -951.5,163.7 -359.9,25.5 -711.9,166.8 -1075.3,141.5 -379.9,103.3 -766.6,60.4 -1149.4,103.2 -38.4,4.4 -78,-17.6 -117.2,-19.4 -127.2,-5.6 -254.4,-7.4 -381.7,-10.6 -57.8,72.4 -123.9,64.7 -190.3,57 -20.8,-2.4 -41.6,-4.9 -62.1,-4.8 -96.1,0.1 -192,9.1 -288.1,12.4 -96.2,3.3 -192.5,9.1 -288.5,3.4 -23.4,-1.4 -46,-31.4 -68.8,-53.2 83.8,-20.2 167.5,-40.7 251.4,-60.4 149.1,-34.9 298.2,-69.2 475.3,-110.2 75.2,102.3 194.7,78.8 314.7,45.3 31.4,-8.7 67.9,-10.8 92,-35.1 60.7,-61.3 118.6,-52.5 181.7,-14.1 21.5,13 47.1,21.2 70.3,19.2 176,-14.9 352.1,-31.4 527.8,-52.3 17.2,-2.1 32.5,-36.8 55.6,-64.7 -52.1,-78.2 -109.7,-97.3 -175.1,-96.3 -231.4,3.8 -462.9,8.8 -694.4,7.6 -351.1,-1.6 -702.9,-23 -1049.3,86 -15.5,4.9 -32.1,7.5 -47.9,6 -298.7,-28.7 -587.7,77.5 -881.3,119.6 -119.4,17.2 -240.1,20.1 -360.4,22.8 -67.5,1.5 -135.5,-1 -203.4,-3.5 -133.3,-4.9 -266.6,-9.8 -396.9,15.6 -170.8,33.3 -340.1,24.1 -509.3,14.9 -94.3,-5.1 -188.6,-10.3 -283,-8 -84.3,2 -168.6,0.2 -252.9,-1.5 -162.3,-3.3 -324.7,-6.6 -487,16.6 -95.7,13.6 -192.9,22.6 -288.8,16.8 -175.8,-10.7 -351,-37 -523.4,39.9 -29.5,13.1 -64,8.4 -95.9,6.2 -96.2,-6.4 -192.2,-19.5 -288.4,-22.6 -91.2,-3 -182.6,1.2 -273.7,6.5 -45.9,2.6 -93.9,4.8 -136.9,24.2 -114.9,51.6 -229.3,67.7 -350.7,54.2 -143.4,-15.9 -284.6,-53.9 -431.2,-45.2 -102.2,6 -204.4,5.3 -306.7,4.7 -113.1,-0.7 -226.4,-1.4 -340.1,6.9 -311.1,22.6 -624.6,-16.8 -937,-27.5 -118.6,-4 -236.4,-13.2 -356,6 -166.5,26.8 -335.1,33.7 -503,37.3 -142.81,3.1 -285.77,-13.6 -428.74,-15.6 -192.14,-2.7 -384.33,0 -576.47,1 -26.11,0.1 -52.29,-0.6 -78.47,-1.2 -62.47,-1.7 -124.96,-3.3 -186.53,6.1 -405.29,61.9 -809.61,142.1 -1219.16,102.4 -226.88,-22 -457.87,13.5 -678.8,-97.9 -35.48,-17.9 -81.19,-14.7 -119.04,-2.5 -136.48,43.8 -233.72,-29.4 -308.64,-181.5 -9.06,-18.4 -17.04,-43.1 -30.03,-51.7 -106.8,-70.5 -174.6,-185.2 -221.21,-335 -26.93,-86.5 -82.95,-132 -157.59,-119.4 -31.23,5.3 -65.08,3.9 -95.36,-7.1 -89.37,-32.6 -168.27,-82.4 -169.97,-239 -1.78,-164.1 -69.12,-264.9 -169.53,-337.1 -84.68,-61 -129.45,-162.1 -136.48,-295.9 -2.3,-43.7 -4.24,-93.1 -19.92,-128.4 -14.68,-33.1 -53.67,-78.6 -70.92,-71 -98.65,43.9 -137.77,-68.7 -202.25,-123.1 -92.87,-78.4 -105.51,-180.9 -83.45,-309.3 31.35,-182.2 63.5,-364.1 94.89,-544 113.38,-91.5 227.74,-134.4 350.97,-134.5 282.22,-0.3 560.85,-40.1 837.94,-118.9 164.1,-46.6 337.51,-31.8 489.98,-152.6 12.58,-9.9 31.15,-5 46.92,-7.6 254.26,-42.1 508.53,-83.7 762.71,-127 55.78,-9.4 116.53,-8.7 165.66,-40.5 275.75,-178.3 587.79,-88.9 867.72,-232.3 12.77,-6.6 28.03,-3.1 43.49,0.4 9.29,2.2 18.65,4.3 27.59,4.2 25.01,-0.2 50.04,-0.2 75.07,-0.1 71.22,0.2 142.43,0.3 213.39,-5.8 191.5,-16.4 382.56,-48.9 574.16,-55.6 96.05,-3.4 189.95,2.1 285.76,-26.9 98.71,-29.8 201.61,-32.6 316.91,-49.3 -60.8,-136.5 -147.7,-158.6 -232.56,-177.7 -255.87,-57.5 -513.06,-54.4 -768.05,1.5 -204.26,44.9 -406.07,104.4 -614.82,60.3 -37.87,-8 -79.45,3.8 -117.78,15.8 -266.96,83.8 -538.01,121 -810.44,145.6 -63.43,5.7 -128.16,44.2 -189.01,33.2 -275.89,-50.4 -539.98,14.1 -800.9,130.5 -30.01,13.4 -63.91,24.8 -94.35,19.3 -251,-44.8 -496.08,35.4 -743.47,64.2 -45.11,5.3 -88.63,21 -128.24,-16.2 40.63,-25 80.24,-58.4 122.67,-68.2 174.24,-39.8 349.24,-74.1 524.51,-104.1 111.3,-19.1 224.2,-21.1 335.22,-42.3 64.17,-12.3 144.85,-20.2 127.17,-159.7 -134.31,19 -272.49,75.1 -400.78,46.4 -52.38,-11.7 -105.86,-10.9 -159.72,-10.1 -80.31,1.1 -161.47,2.2 -241.13,-38 67.34,-163.1 209.2,-56 278.57,-195 -19.46,-17.8 -37.17,-47.8 -54.53,-47.5 -72.1,1.6 -144.1,12.3 -216.15,19.5 -304.11,30.1 -608.34,58 -912.28,91.6 -79.15,8.8 -158.13,30.8 -235.78,55.3 -131.41,41.7 -261.86,58.7 -403.95,18.1 99.7,-147.8 105.78,-160.9 229.5,-176.2 170.29,-20.9 333.78,-85.4 485.04,-182.5 201.52,-129.2 406.83,-196.8 627.14,-200.6 87.98,-1.5 175.81,-24.6 263.56,-39.7 79.22,-13.5 158.19,-41.5 237.41,-42.4 264.26,-2.7 511.99,-168.9 778.67,-146 30.19,2.5 63.86,-16.9 91.92,-36.9 23.52,-16.9 41.23,-49.5 70.45,-86.4 -157.1,-166.2 -323.18,-236.3 -490.66,-297.7 -99.22,-36.4 -191.84,-102.7 -303.2,-84.2 -206.67,34.3 -414.84,55.1 -622.79,68.4 -94.01,6 -193.68,11.3 -278.85,-72.6 59.61,-128.7 59.7,-128.4 112.8,-150.1 105.46,-43.2 220.9,-47.2 327.88,-159.5 -33.17,-53.9 -57.5,-109 -91.81,-146.4 -100.71,-109.9 -211.17,-203.5 -306.8,-320.8 -94,-115.2 -195.98,-189.7 -319.36,-212.5 -31.64,-5.9 -62.49,-19.9 -93.95,-28.3 -108.69,-29 -175.11,-103.7 -219.97,-259 -64.42,-223.1 -174.51,-414.6 -310.55,-584.8 4.25,-171.3 12.68,-352.4 -69.56,-487.2 -218.64,-185.1 -462.71,-213.3 -687.35,-323.9 -148.99,-73.4 -299.63,-147.9 -446.78,-225.9 -284.02,-150.5 -543.64,-373.2 -785.47,-631 -36.79,-39.3 -73.35,-92.2 -91.18,-149.9 -44.91,-145.5 48.09,-625.9 143.87,-709.6 85.98,-75.1 182.06,-141.7 280.22,-173.8 228.51,-74.7 441.71,-201.2 654.97,-330 61.31,-37.1 109.03,-97.5 128.39,-189.1 42.49,-201.2 82.78,-403.3 127.28,-621.5 -69,-55.4 -128.58,-142 -191.14,-146.2 -196.06,-13.6 -294.33,-209.9 -406.83,-378.7 -83.87,-125.7 -92.76,-302.9 -53.67,-442.7 44.89,-160.4 125.83,-312.6 215.16,-434.6 75.42,-102.9 154.05,-190.3 186.84,-336.5 9.05,-40.4 30.52,-80.1 53.6,-109 201.56,-252.2 257.89,-601 339.27,-931.1 -83.99,-142.1 -162.59,-264.9 -272.17,-348.2 -54.04,-41.1 -118.38,-104.3 -136.82,-177.5 -37.47,-148.8 -117.3,-233.9 -192.08,-334 -51.64,-69.2 -95.65,-150.5 -137.64,-231.7 -11.79,-22.9 -4.44,-64.8 -7.73,-141.6 90.02,129 141.42,252.2 248.97,277.9 193.33,-66.3 288.9,-297.2 385.11,-456 125.75,-64.4 233,-92 316.54,-169.1 102.7,-94.9 225.66,-24.1 322.72,-113.7 6.68,-6.2 12.89,-13.8 20.13,-18.3 225.4,-141.1 256.11,-127 374.77,180.6 27.55,-9.5 62.48,-9.3 86.33,-31.8 73.56,-69.4 146.13,-134.5 235.42,-163.6 45.1,-14.7 86.63,-57.5 126.61,-94.1 189.98,-173.8 634,-429.7 856.59,-505.2 124.25,-42.3 245.94,-101.9 366.22,-163.2 105.19,-53.6 208.74,-115.1 309.64,-182.8 238.01,-159.9 524.46,-126.6 743.69,-360.8 11.24,-12.1 31.49,-6.9 46.9,-12.8 92.33,-35.4 184.54,-71.3 276.63,-107.7 145.9,-57.6 283.44,-144 440.13,-164.1 157.89,-20.2 310.92,-105.2 467.93,-149 172.51,-48.1 347.14,-82 520.92,-121.2 229.97,-51.9 466.71,-71.6 688.14,-163.1 224.7,-92.9 455,-127.2 680.9,-199.9 66.4,-21.4 136.8,-35.3 204.8,4.9 -5,22 -4.9,37.7 -10.1,42.3 -33.2,29.6 -66.7,58.9 -101.7,84.3 -92.3,67.1 -186.7,128.9 -277.6,199.4 -39.7,30.7 -27.9,152.7 17,166.8 53.3,16.8 110.3,24.5 164.7,18.6 120.2,-13.2 239.4,-46.6 359.6,-54.6 129,-8.6 253.5,-37.2 378.1,-83.3 123.4,-45.6 250.1,-75.6 375.7,-109.8 110,-29.8 220.6,-55.2 330.8,-83.8 108.4,-28.2 216.5,-58.1 325.9,-87.6 -32.9,-105.2 -49.3,-139.1 -80.1,-149.1 -78,-25.7 -157.8,-42.7 -234.7,-73.3 -138.6,-55.1 -274.8,-104.1 -421,-44.5 -42.5,17.3 -97.8,6.1 -140.6,-16.2 -89.6,-46.6 -170.7,-32.5 -257.3,14.3 -66.3,35.9 -138.9,49.6 -207.5,72.6 -13.6,-47 -17.3,-106.9 -36.8,-119.4 -181.4,-116 -372.6,-117.9 -566.1,-76.1 -96.3,106.8 -213.3,62.5 -321.1,87.1 -157.9,35.9 -314.2,84.3 -473.68,128.1 -47.74,-46.2 -73.4,-146.1 -154.04,-127.6 -220.61,50.5 -443.55,84.6 -661.93,149.1 -187.69,55.3 -370.69,142 -555.13,217.6 -168.47,69.1 -338.04,132.7 -494.31,251.2 -62.34,47.2 -133.58,76 -203.25,97.8 -17.27,5.5 -41.69,-33.1 -63.95,-58.2 190.26,-99.3 387,-180.3 568.27,-304.7 188.14,-129.1 382.14,-203.9 586.72,-247.6 92.86,-19.8 178.84,-86.6 266.52,-176.6 -13.52,-69.1 -54.89,-64.6 -93.85,-70.8 -26.6,-4.3 -53.12,4.1 -79.62,12.4 -40.9,13 -81.76,25.9 -122.77,-7.8 56.62,-89.2 141.94,-84.6 214.1,-123.2 38.55,-20.6 69.7,-53.9 49.15,-138.6 -47.85,-15.5 -102.13,-29.2 -154.78,-50.8 -230.77,-94.5 -456.35,-121.6 -668.9,79.9 -88.17,83.5 -175.95,68.1 -260.06,-12.7 20.25,-81.5 40.39,-162.6 58.66,-236.2 -73.01,-106.1 -152.04,-96.7 -233.41,-101.4 -84.52,-4.8 -168.14,-39.4 -254.98,-61.7 -115.35,79.8 -225.66,200.3 -371.03,139.2 -6.62,-52.4 -13.28,-104.8 -18.63,-147.3 -79.51,-56 -155.66,-43.6 -230.17,-31.1 -36.03,6 -71.69,12 -107.14,10.3 -44.48,-136.5 -112.56,-232.1 -211.88,-299 -121.45,-81.9 -234.89,-186.9 -350.85,-284.1 -45.55,-38.2 -58.83,-131.2 -20.55,-171.4 109.88,-115 206.92,-240.9 243.05,-434.2 87.03,-73.8 91.06,-166.1 42.13,-283.6 -22.95,-55.1 -26.71,-125.7 -39.15,-189.3 -120.88,-25.8 -116.47,-189.3 -165.65,-293 -43.8,-92.2 -111.87,-121.4 -180.78,-143.3 -20.42,-6.5 -42.34,-2.7 -64.4,1.2 -18.63,3.2 -37.37,6.4 -55.36,3.4 -170.57,-28.2 -345.92,-24.7 -514.22,-118.3 15.27,-49.7 26.77,-78.9 33.41,-110 41.99,-197.6 24.53,-297.4 -101.24,-390.7 -67.64,-50.1 -115.71,-117.2 -162.43,-191.8 -80.19,-127.9 -175.73,-186 -298.37,-150.2 -11.35,3.3 -26.43,-18.2 -44.44,-31.7 8.16,-83.6 16.54,-169.8 24.46,-250.9 436.79,-255.2 478.42,-419.2 495.73,-802.7 117.39,-137.6 290.39,-184.6 376.66,-394 -27.01,-91 -51.61,-182.9 18.48,-265.1 42.94,-50.2 86.12,-102.7 120.64,-163.5 39.31,-69.1 74.43,-145.3 100.24,-225.4 9.58,-29.5 -3.91,-92.3 -22.6,-115.2 -19.24,-23.5 -64.69,-35.6 -86.24,-19.8 -48.8,35.5 -87.7,96.2 -134.91,137.3 -37.09,32.2 -76.23,24.6 -103.19,-31.5 2.24,-194.3 143.67,-175.4 228.07,-270.3 -24.48,-49 -44.97,-89.8 -65.29,-130.5 -68.41,51.6 -136.74,103.1 -201.76,152.1 -68.45,-6.8 -132.69,-22.9 -195.85,-17 -81.48,7.6 -138.77,-34.5 -182.56,-121.7 -19.01,-361.3 208.52,-491.9 360.45,-707 -63.99,-105.7 -118.98,-196.4 -172.21,-284.3 0.81,-135.7 60.1,-216.2 133.88,-261.9 179.03,-110.9 282.31,-350.2 451.19,-464.2 -56.53,-207 -56.45,-211.2 -134.37,-225.9 -210.38,-39.6 -331.21,-198.7 -355.59,-495 -2.51,-30.5 -18.38,-59 -30.76,-96.8 -47.08,-6.4 -94.04,-12.7 -141.02,-19.1 -34.53,-58.2 -69.05,-116.5 -100.41,-169.4 -88.46,9.2 -177.65,127.3 -233.57,-44 24.36,-88.5 57.2,-63.2 87.21,-37.9 18.5,15.6 35.91,31.2 49.6,20.1 59.88,-48.3 108.95,-13 160.81,5.2 57.56,20.4 85.4,135.8 178.86,106.1 -1.59,-67.4 5.06,-132.1 -6.35,-189.9 -17.89,-90.9 -46.93,-177.6 -71.79,-265.9 158.13,106.8 334.99,141.7 484.78,253.4 58.83,-36.9 108.95,-68.3 157.24,-98.6 24.03,48.5 41.71,84.3 68.43,138.4 101.3,-16.5 209.87,-34.1 315.45,-51.3 36.52,119.1 69.64,227.2 102.02,332.9 80.38,-15.4 145.56,-18.6 207.01,-41.2 216.34,-79.6 449.06,-98 641.99,-266.9 111.49,-97.6 225.58,-150.8 351.05,-182 62.92,-15.7 124.96,-41.6 185.65,-70.2 265.22,-124.6 524.6,-281.2 812.69,-275.9 118.66,-86 249.56,-59.9 370.3,-92.3 35.29,48.9 60.08,94.1 92.11,124.7 31.77,30.2 72.59,69 106.42,64 230.36,-33.9 464.6,-5.7 691.69,-102.9 144.8,-62.1 295.9,-103.3 446.4,-130.8 316.2,-58 633.9,-99.9 950.8,-149.9 470.6,-74.2 941.1,-146.4 1415,-167.1 87.8,-3.8 175,-27.1 262.6,-39.4 247.2,-34.7 493.9,-79.7 741.7,-100 376.3,-30.9 751.4,-78.4 1125.6,-138.5 17.7,-2.8 32.9,-35.6 67.8,-75.9 -51.5,-27.9 -84.5,-53.5 -119.7,-63.2 -86.1,-23.9 -173.7,-38 -260.1,-60.4 -244.3,-63.3 -488.1,-129.8 -732.4,-192.7 -46.7,-12 -95.1,-19.5 -142.5,-18.2 -265.1,7.3 -530.3,12.7 -795,29.7 -143.9,9.2 -287.1,40.7 -430.8,59.8 -14.1,1.8 -29.3,-12.9 -44.1,-19.9 6.7,-41 13.4,-82 21.3,-130.4 -39.3,-35.2 -77.2,-69.3 -122.5,-109.9 40.1,-85 77.8,-165.2 119.8,-254.5 -119.7,-118.5 -237.5,-148.4 -372,-125.3 -289,49.5 -577.4,145.9 -871.2,42 -36.5,-12.9 -79.5,9.6 -119.4,15.6 -0.1,-1.7 -0.2,-3.4 -0.3,-5.1 -105.8,49.5 -210,-7.6 -314.8,-13.5 -6.7,-0.4 -12.1,-46.4 -18,-75.7 l -3.1,2.3 c 17.6,-111.5 68.8,-179.3 148.8,-189.1 103.3,-12.6 207.5,-17.7 311.1,-14.9 62.8,1.8 107.5,-23.6 138.1,-97.7 -6.6,-92.2 -52.6,-131.5 -106.5,-163 -66,-38.5 -131.1,-79.9 -196.6,-120.2 -24.4,-185.3 -153.2,-156.1 -244.6,-206 117.9,-284.1 172,-565.2 139.7,-880.1 -13.4,-129.8 -34.2,-219.4 -112.7,-307.7 -69,-77.4 -103.7,-213.5 -143.4,-301.3 -162.8,-90.7 -314.7,-163.7 -459,-258.8 -147.3,-97 -263.4,-246 -330.8,-461 -31.4,-100.4 -63.9,-207.9 -116.08,-286.3 -117.42,-176.4 -247.44,-336.6 -372.75,-503.9 14.95,-60.4 27.53,-111.3 38.35,-155 67.72,-16.2 113.38,-13.1 165.88,44.6 84.66,92.9 169.89,210.6 291.8,178.8 82.9,-102 123.3,-248.2 209.2,-300 160.6,92.6 306.1,185.7 456.4,260.7 164.1,82 324.5,202.1 511.3,136.6 26.4,-9.3 62.9,15.6 90.1,36.3 137.6,105 290.8,121.3 440.9,155.9 55,12.6 111,20.4 164.8,39.8 76.4,27.6 149.8,76.2 227.2,93.9 167.2,38.1 328.8,98.1 486.9,182 42.8,22.7 95.6,33.2 139.9,21.2 121.7,-32.9 238.3,-20.1 357.2,24.3 139,52 280.1,93.7 421.1,134.1 62,17.8 129.5,43.5 188.6,26.3 99.7,-29 193.6,1.9 286.3,25.2 236.7,59.8 471.2,133.5 709.9,182.3 99.2,20.3 200.4,34.7 283.8,-15.4 128.7,-77.3 251.3,-55.5 378.1,-31.9 79.3,14.7 157.6,40.6 236.7,58.4 458,102.8 924.7,97.6 1381,239.5 215.7,67.2 446.2,43.4 670,60.1 23.9,1.8 59.5,12.4 70,-4.6 79.2,-127.6 174.8,-74.9 268,-57.1 96.3,18.4 169.8,-42.3 215.4,-127 151.4,32.5 284.7,67.9 419.2,88.8 398.9,61.9 779.9,248.5 1178.1,320.1 103.5,18.6 208.2,51.4 308.9,32.3 218.5,-41.4 432.6,1.9 648.7,22.3 183.5,17.3 368.1,31.7 563.3,-19.1 7.4,-62.3 14.6,-123.1 21.7,-183.2 188.6,96.7 392.7,109.6 589,106.4 168.9,-2.8 334.6,-17.1 502.1,27.8 141.8,38 253.6,-23.5 299.8,-230.6 173.4,-8.1 327,-49.3 384.9,-333.4 -137.1,-152.2 -288.2,-267.7 -463.6,-310 -118.7,-28.6 -239.3,-41.1 -359.1,-60.1 -125.4,-19.9 -245.9,-90.3 -376.3,-61.6 -38.4,8.5 -84.1,5 -118.9,-16.4 -146.2,-89.8 -298.7,-86.7 -451.2,-83.5 -79.8,1.6 -159.6,3.2 -238.5,-8.5 -69.1,-10.2 -136.2,-4.8 -208.6,-27.4 -169.7,-53.2 -345.4,-84.6 -519.4,-92.3 -122.7,-5.4 -223.5,-50.3 -313,-155.8 58.9,-15.5 117.7,-40.3 176.5,-39.9 152.5,0.9 304.9,19.5 457.4,22 88,1.4 181.8,9.6 262.9,-27.7 195.8,-90.2 392.7,-78.5 591.5,-54 174.9,21.4 349.2,65.1 525.4,36 279.9,-46.2 561.9,-53.3 839.6,-3.2 446.9,80.6 896.2,86.5 1344.5,123.3 312.5,25.8 625.3,45.7 937.1,80.9 312.1,35.2 623.7,81.9 934.8,131.2 413.7,65.6 826.3,145 1240.4,204.9 133.3,19.2 265,104.5 406.7,39 52.9,-92 106.8,-185.8 159.2,-277.1 170.2,17.4 327.3,82.3 488.4,25.9 36.5,-12.8 79.9,3.7 119,14.8 94,26.6 188.5,52.5 280.7,88.9 113.7,44.9 232.3,36.5 332.3,-21.8 149.9,-87.4 308.5,-115.5 460.6,-182.4 305.5,-134.5 614.6,-255 910,-429.5 235.1,-138.9 476.3,-262.6 670.4,-509.7 60.4,-77 138.4,-96.1 220.8,-28.7 68.8,56.3 137.7,43.4 195.4,-45.3 24.5,-37.8 56.6,-66.4 88.1,-102.4 52.7,181.4 74.5,218.9 194.8,361.4 22.9,27.1 39.7,64.3 59.2,96.5 -29.4,154 -74.5,282.6 -144.7,393.8 -21.1,33.7 -49.6,62.3 -62.5,101.1 -15.9,47.5 -33.5,109.1 -24,153.8 12.7,59.3 59.4,52.2 102.5,45.3 127.8,-20.6 246.1,-94 369.1,-128.2 222.6,-61.9 433.1,-168.3 640.5,-284.6 104.7,-58.8 208.3,-105.9 317.1,-146.8 240.3,-90.4 456.7,-262.7 670,-437.2 34.1,-27.8 52.1,-93.6 88,-161.7 -89.9,-2.1 -168.5,41.2 -245.3,84.6 -97.4,55 -192,110 -303.1,72.1 26.2,-81.1 77.5,-91.8 120.1,-114.6 126.2,-67.5 256.8,-120.5 368.6,-232.7 18.7,-18.7 44.5,-24.8 67.5,-34 153.4,-60.8 271.9,-170.5 340.4,-385.6 21.3,-66.6 97.1,-108.9 154.2,-140.4 30,-16.5 73.5,14.3 112.7,24.3 17.6,160.3 31.4,303.7 49.5,446.1 13.6,106.2 21.4,217.4 84.5,296.3 -61.6,112.9 -125.2,223.9 -184,339.4 -58.1,113.8 -189.1,144.2 -190.8,329 15.9,17 32.1,45.9 52.6,54.1 64.6,26 113.4,68.1 145,157.5 34.4,97.5 40.1,192.6 15.9,291.2 -23.1,94.3 -33.7,214.3 -81.7,273.2 -146.1,179.5 -174,474.3 -339.2,632.8 -47.6,45.5 -43.4,173.9 2.2,207.3 157.6,115.3 203.8,370 341.3,508.7 17.7,17.8 32.7,54.5 35.1,84.6 7.3,88.2 16.1,178.8 8.7,265.9 -10.4,122.1 93,156.4 94.5,259.9 3,210.8 16.2,427 -117.6,587 -23.7,28.2 -40.3,67.8 -56.6,95.9 -2.2,133.2 -8.2,255.7 -4.6,377.6 1.9,64.3 14.1,131.8 33.2,190.6 29.6,90.3 67.7,175.5 105,260.5 22.4,51.1 60.4,83.1 101.1,60.5 26,-14.4 54.3,-56 61.5,-92.9 18.7,-95.8 26.9,-195.7 38.3,-294.1 12.1,-105.2 -25.3,-160.3 -110.8,-153.5 -46.4,3.6 -93,37.1 -147.8,-29.8 30.1,-33.3 55.4,-80.1 87.5,-92.1 19.9,-7.4 42.7,-5.4 65.2,-3.3 28,2.7 55.5,5.3 75.9,-11 103.5,-82.7 200.8,-181.8 296,-282.6 58.7,-62.1 58.9,-150.2 35.3,-243.5 -6.4,-25.2 6.7,-59.9 10.4,-86.3 37.4,-14.1 68.1,-27.8 99.6,-36.7 26.2,-7.4 53.3,-9.2 68.1,-11.6 8.5,58.1 14,96 19.6,133.9 21.1,-8.7 53.1,-8.3 61.6,-27.6 51.5,-118.6 97.7,-241.6 161.3,-402.8 13.4,224.4 -25.2,372.2 -118,495.6 -80.5,107 -150.9,222.3 -276.8,246.5 -51.7,9.9 -100.1,102.5 -139.7,169.2 -34.6,58.4 -6.9,123.9 12,187.2 85,285.6 23.2,569.6 -4.9,855.6 -15.7,160.1 -90,254.9 -163.8,357.5 -16.3,22.7 -35.2,56.3 -35.1,84.8 0.6,207 -109.1,281.6 -216.3,364.1 -48.1,36.9 -91,86.5 -142.5,136.4 34.6,260.8 -126.7,484.4 -44.5,748.8 -85.8,74.9 -146.6,155.1 -176.8,280.3 -27.1,112.9 -74.3,216.6 -115.8,333.3 98.6,135 228.9,138.5 337.1,155.4 51.4,140 99.4,255.7 137.3,377.5 53.8,172.3 56.8,356.8 -10.8,516 -47.2,111.1 -119.8,224.7 -201.2,279.5 -171.2,115.3 -244.9,342.1 -358.6,523 -47.4,75.4 -38.9,169.1 -24.8,255 5.5,33.3 38.7,64.7 64.5,83 12,8.5 26,5.8 40.6,3.2 24.5,-4.5 50.9,-9 72.6,38.8 -12.6,98.3 -26.2,205.8 -38.2,299.2 -86.9,75.1 -162.9,136.7 -234.8,206.7 -12.9,12.6 -17.5,64.6 -9.8,88.6 7.1,22.3 39.1,49.2 54.2,43.6 115.7,-43 230.5,-91.3 344.6,-142.1 283.7,-126.1 559.5,-274.6 792.8,-543.1 6.4,-7.3 17.7,-6.5 28.7,-5.7 5.1,0.4 10.1,0.7 14.5,0.3 27.5,76.7 54.8,152.9 80.7,225.1 100.8,-15.5 173.7,-65.7 216.4,-165.4 105,-245.2 277,-360.8 456.5,-449.8 134.4,-66.7 234.6,-189.5 339.3,-310 51.7,-59.4 81.1,-132.7 85.5,-229.8 4.3,-98.8 13.7,-198.8 31.9,-294.3 10,-51.9 58.5,-113.4 90,-75.4 94.7,114.5 193.2,63.1 305,20.8 -13.3,298.1 38.6,542.5 189.9,726.9 86.1,-30.6 134.1,-106.7 176.3,-188.5 52.3,-101.3 48.5,-254.7 -30.7,-326.6 -86.5,-78.6 -88.1,-172 -76.2,-300.2 20.9,1.8 42.5,0.9 64.1,0 66.4,-2.9 133.4,-5.7 183.5,69.3 77.7,116.4 204.3,196.7 186.5,399.5 -43.6,52 -101.5,90.6 -123.7,153.4"
         style="fill:#e3f6fd;fill-opacity:1;fill-rule:nonzero;stroke:none"
         id="path16" /><path
         d="m 33135.9,12474.1 380,-230.5 c 237.2,-143.9 534.8,-143.9 772,0 l 380,230.5 -230.5,-380 c -143.9,-237.2 -143.9,-534.8 0,-772 l 230.5,-380 -380,230.5 c -237.2,143.9 -534.8,143.9 -772,0 l -380,-230.5 230.5,380 c 143.9,237.2 143.9,534.8 0,772 l -230.5,380"
         style="fill:#a3e2f9;fill-opacity:1;fill-rule:nonzero;stroke:none"
         id="path18" /><path
         d="m 33433.2,12176.8 18.7,-30.9 c 163.8,-270 163.8,-605.6 0,-875.7 l -18.7,-30.8 30.9,18.7 c 270,163.8 605.6,163.8 875.7,0 l 30.8,-18.7 -18.7,30.8 c -163.8,270.1 -163.8,605.7 0,875.7 l 18.7,30.9 -30.8,-18.7 c -270.1,-163.8 -605.7,-163.8 -875.7,0 z M 33136,10842.1 c -25.9,0 -51.5,10 -70.8,29.3 -32.5,32.6 -38.6,83.2 -14.8,122.6 l 230.5,380 c 125,206.1 125,462.1 0,668.2 l -230.5,380 c -23.8,39.4 -17.7,90 14.8,122.6 32.6,32.5 83.2,38.6 122.6,14.8 l 380,-230.5 c 206.1,-125 462.1,-125 668.2,0 l 380,230.5 c 39.4,23.8 90,17.7 122.6,-14.8 32.5,-32.6 38.7,-83.2 14.8,-122.6 l -230.5,-380 c -125,-206.1 -125,-462.1 0,-668.2 l 230.5,-380 c 23.9,-39.4 17.7,-90 -14.8,-122.6 -32.6,-32.5 -83.2,-38.7 -122.6,-14.8 l -380,230.5 c -206.1,125 -462.1,125 -668.2,0 l -380,-230.5 c -16.1,-9.7 -34,-14.5 -51.8,-14.5"
         style="fill:#3c5696;fill-opacity:1;fill-rule:nonzero;stroke:none"
         id="path20" /><path
         d="m 33901.9,33801.5 431.6,105.7 c 269.5,66 479.9,276.4 545.9,545.9 l 105.7,431.6 105.8,-431.6 c 66,-269.5 276.4,-479.9 545.8,-545.9 l 431.7,-105.7 -431.7,-105.7 c -269.4,-66 -479.8,-276.4 -545.8,-545.9 l -105.8,-431.6 -105.7,431.6 c -66,269.5 -276.4,479.9 -545.9,545.9 l -431.6,105.7"
         style="fill:#fccf6e;fill-opacity:1;fill-rule:nonzero;stroke:none"
         id="path22" /><path
         d="m 34322.3,33801.5 35,-8.6 c 306.8,-75.1 544.1,-312.4 619.2,-619.2 l 8.6,-35.1 8.6,35.1 c 75.2,306.8 312.4,544.1 619.2,619.2 l 35.1,8.6 -35.1,8.6 c -306.8,75.1 -544,312.4 -619.2,619.2 l -8.6,35.1 -8.6,-35.1 c -75.1,-306.8 -312.4,-544.1 -619.2,-619.2 z m 662.8,-1183.2 v 0 c -46,0 -86.1,31.4 -97.1,76.2 l -105.7,431.6 c -57.4,234.1 -238.4,415.2 -472.6,472.5 l -431.6,105.8 c -44.7,10.9 -76.2,51 -76.2,97.1 0,46.1 31.5,86.2 76.2,97.1 l 431.6,105.7 c 234.2,57.4 415.2,238.4 472.6,472.6 l 105.7,431.6 c 11,44.7 51.1,76.2 97.1,76.2 46.1,0 86.2,-31.4 97.2,-76.2 l 105.7,-431.6 c 57.3,-234.2 238.4,-415.2 472.5,-472.6 l 431.6,-105.7 c 44.8,-10.9 76.3,-51 76.3,-97.1 0,-46.1 -31.5,-86.2 -76.3,-97.1 l -431.6,-105.8 c -234.1,-57.3 -415.2,-238.4 -472.5,-472.5 l -105.7,-431.6 c -11,-44.8 -51.1,-76.2 -97.2,-76.2"
         style="fill:#3c5696;fill-opacity:1;fill-rule:nonzero;stroke:none"
         id="path24" /><path
         d="m 3459.81,27495.9 352.11,-1314.1 c 59.21,-220.9 335.44,-295 497.21,-133.2 l 961.97,962 c 161.77,161.8 87.76,438 -133.22,497.2 l -1314.08,352.1 c -220.99,59.2 -423.2,-143 -363.99,-364"
         style="fill:#fccf6e;fill-opacity:1;fill-rule:nonzero;stroke:none"
         id="path26" /><path
         d="m 3556.4,27521.8 352.11,-1314.1 c 18.45,-68.8 70.58,-121 139.44,-139.4 68.85,-18.5 140.06,0.6 190.47,51 l 961.97,962 c 50.41,50.4 69.49,121.6 51.04,190.5 -18.45,68.8 -70.58,121 -139.44,139.4 l -1314.08,352.1 c -68.86,18.5 -140.05,-0.6 -190.47,-51 -50.4,-50.4 -69.48,-121.6 -51.04,-190.5 z m 544.39,-1660.6 c -34.68,0 -69.78,4.6 -104.6,13.9 -138.7,37.2 -243.7,142.2 -280.86,280.9 l -352.11,1314 v 0 c -37.17,138.7 1.27,282.2 102.8,383.7 101.53,101.5 244.98,139.9 383.66,102.8 l 1314.08,-352.1 c 138.7,-37.2 243.69,-142.2 280.85,-280.9 37.17,-138.7 -1.26,-282.1 -102.79,-383.6 l -961.98,-962 c -76.05,-76 -175.6,-116.7 -279.05,-116.7"
         style="fill:#3c5696;fill-opacity:1;fill-rule:nonzero;stroke:none"
         id="path28" /><path
         d="m 22582.3,3575.5 223.1,1342 c 37.5,225.7 -183.4,407.4 -397.6,327 l -1273.7,-477.8 c -214.2,-80.4 -261.1,-362.5 -84.4,-507.8 l 1050.7,-864.2 c 176.6,-145.3 444.4,-44.9 481.9,180.8"
         style="fill:#f57b8f;fill-opacity:1;fill-rule:nonzero;stroke:none"
         id="path30" /><path
         d="m 22512.9,5163.7 c -23.4,0 -47,-4.2 -70,-12.8 l -1273.7,-477.8 c -66.8,-25.1 -113.6,-82 -125.3,-152.3 -11.7,-70.4 14.2,-139.4 69.3,-184.7 L 22163.9,3472 c 55,-45.3 127.7,-57.4 194.5,-32.4 66.7,25.1 113.6,82 125.3,152.3 l 223,1342 c 11.7,70.4 -14.2,139.4 -69.2,184.7 -36.2,29.7 -79.9,45.1 -124.6,45.1 z m -225.1,-1937.2 c -90,0 -178.2,31.1 -251,91 l -1050.7,864.2 c -110.9,91.2 -163,230.2 -139.5,371.9 23.6,141.6 117.9,256.3 252.3,306.7 l 1273.8,477.9 c 134.4,50.4 280.9,26.1 391.8,-65.2 110.9,-91.2 163.1,-230.2 139.5,-371.9 l -223.1,-1342 c -23.5,-141.6 -117.8,-256.3 -252.2,-306.7 -46.2,-17.4 -93.8,-25.9 -140.9,-25.9"
         style="fill:#3c5696;fill-opacity:1;fill-rule:nonzero;stroke:none"
         id="path32" /><path
         d="m 4410.73,8390.7 383.57,383.5 c 87.63,87.7 87.63,229.7 0,317.4 -87.62,87.6 -229.69,87.6 -317.32,0 L 4093.4,8708 3709.83,9091.6 c -87.63,87.6 -229.7,87.6 -317.32,0 -87.63,-87.7 -87.63,-229.7 0,-317.4 l 383.57,-383.5 -383.57,-383.6 c -87.63,-87.6 -87.63,-229.7 0,-317.3 87.62,-87.7 229.69,-87.7 317.32,0 l 383.57,383.5 383.58,-383.5 c 87.63,-87.7 229.7,-87.7 317.32,0 87.63,87.6 87.63,229.7 0,317.3 l -383.57,383.6"
         style="fill:#f57b8f;fill-opacity:1;fill-rule:nonzero;stroke:none"
         id="path34" /><path
         d="m 17701,35497.5 h -485.8 v 485.8 c 0,111 -90,200.9 -200.9,200.9 -111,0 -201,-90 -201,-200.9 v -485.8 h -485.8 c -111,0 -200.9,-90 -200.9,-201 0,-111 89.9,-200.9 200.9,-200.9 h 485.8 v -485.8 c 0,-111 90,-201 201,-201 110.9,0 200.9,90 200.9,201 v 485.8 h 485.8 c 111,0 201,89.9 201,200.9 0,111 -90,201 -201,201"
         style="fill:#f57b8f;fill-opacity:1;fill-rule:nonzero;stroke:none"
         id="path36" /><path
         d="m 13516.1,8902.7 -369.7,14.6 -2568.1,101.5 -369.7,14.6 13.5,339.5 9.2,234.1 c 112.5,-40 227.6,-69 342.4,-90 316.2,-58 633.9,-99.9 950.8,-149.9 470.6,-74.2 941.1,-146.4 1415,-167.1 87.8,-3.8 175,-27.1 262.6,-39.4 107.5,-15.1 214.9,-32.1 322.3,-48.2 l -8.3,-209.7 m -870.4,1667.6 c -35.6,0 -73.1,14.6 -113.8,61.3 47.2,50.1 89.9,63.7 130.3,63.7 31.9,0 62.2,-8.4 92.2,-14.1 7.8,-1.5 14,-33.7 18,-52.8 1.5,-7.5 -4.1,-25.2 -8.3,-26.5 -38.3,-11.8 -77.1,-31.6 -118.4,-31.6 m 445.7,13.4 c -34.6,0 -68.2,34.4 -102,112.2 84.3,-14.8 141.6,-24.9 199,-35 -33.8,-49.2 -65.8,-77.2 -97,-77.2"
         style="fill:#c3dee1;fill-opacity:1;fill-rule:nonzero;stroke:none"
         id="path38" /><path
         d="m 13524.4,9112.4 c -107.4,16.1 -214.8,33.1 -322.3,48.2 -87.6,12.3 -174.8,35.6 -262.6,39.4 -473.9,20.7 -944.4,92.9 -1415,167.1 -316.9,50 -634.6,91.9 -950.8,149.9 -114.8,21 -229.9,50 -342.4,90 l 319.5,8082.8 c 23.7,600.5 561.1,1071.6 1209.4,1071.6 17.6,0 35.3,-0.4 53,-1.1 l 871.1,-34.4 c 671.7,-26.5 1198.4,-550 1174,-1166.8 l -328.8,-8316.9 -5.1,-129.8 m -862.2,1582.9 c -40.4,0 -83.1,-13.6 -130.3,-63.7 40.7,-46.7 78.2,-61.3 113.8,-61.3 41.3,0 80.1,19.8 118.4,31.6 4.2,1.3 9.8,19 8.3,26.5 -4,19.1 -10.2,51.3 -18,52.8 -30,5.7 -60.3,14.1 -92.2,14.1 m 327.2,0.6 c 33.8,-77.8 67.4,-112.2 102,-112.2 31.2,0 63.2,28 97,77.2 -57.4,10.1 -114.7,20.2 -199,35"
         style="fill:#acd3e2;fill-opacity:1;fill-rule:nonzero;stroke:none"
         id="path40" /><path
         d="m 15124.4,8839.1 -405.7,16 -369.7,14.6 6,150.7 c 238.5,-27 476.6,-60.1 714.4,-98.3 17.7,-2.8 32.9,-35.6 67.8,-75.9 -4.4,-2.4 -8.6,-4.8 -12.8,-7.1"
         style="fill:#c3dee1;fill-opacity:1;fill-rule:nonzero;stroke:none"
         id="path42" /><path
         d="m 17656.5,8739 -369.7,14.6 -2162.4,85.5 c 4.2,2.3 8.4,4.7 12.8,7.1 -34.9,40.3 -50.1,73.1 -67.8,75.9 -237.8,38.2 -475.9,71.3 -714.4,98.3 l 7.4,188.8 469.3,11872.7 c 6.5,164.3 48.2,322.7 123.9,470.7 72.9,142.5 173.9,269 300.3,376.2 126.4,107.2 271.9,189.7 432.3,245.1 148.7,51.3 304.1,77.2 462.9,77.2 19.3,0 38.6,-0.4 58,-1.1 l 649.1,-25.7 c 178.9,-7 351.6,-46.4 513.3,-117 155.6,-67.9 294.1,-161.5 411.6,-278.3 117.6,-116.9 208.3,-251 269.7,-398.8 63.8,-153.5 92.9,-314.7 86.4,-479 L 17669.9,9078.5 17656.5,8739"
         style="fill:#acd3e2;fill-opacity:1;fill-rule:nonzero;stroke:none"
         id="path44" /><path
         d="m 21796.9,8575.3 -369.7,14.7 -2568.1,101.5 -369.7,14.6 13.4,339.5 629.8,15935.2 c 7.1,178.9 52.5,351.3 134.9,512.4 79.4,155.2 189.4,293 327.1,409.8 137.6,116.7 296,206.5 470.8,266.8 161.8,55.9 331.1,84.1 504,84.1 21,0 42,-0.4 63.1,-1.2 l 412.8,-16.4 c 194.8,-7.7 382.8,-50.5 558.8,-127.3 169.4,-73.9 320.3,-175.9 448.3,-303.2 128,-127.2 226.8,-273.3 293.7,-434.2 69.5,-167.2 101.1,-342.7 94,-521.5 l -629.8,-15935.2 -13.4,-339.6"
         style="fill:#acd3e2;fill-opacity:1;fill-rule:nonzero;stroke:none"
         id="path46" /><path
         d="m 25937.2,8411.7 -369.7,14.6 -2568.1,101.5 -369.7,14.6 13.4,339.5 349.1,8830.5 c 24,609 569,1086.8 1226.5,1086.8 17.9,0 35.8,-0.4 53.8,-1.1 l 836.5,-33.1 c 681.3,-26.9 1215.4,-557.8 1190.7,-1183.4 l -349.1,-8830.4 -13.4,-339.5"
         style="fill:#acd3e2;fill-opacity:1;fill-rule:nonzero;stroke:none"
         id="path48" /><path
         d="m 30077.6,8248.1 -369.7,14.6 -2568.1,101.5 -369.7,14.6 13.4,339.5 413.7,10467.1 c 6.3,159.1 46.7,312.5 120.1,456 70.5,137.9 168.4,260.6 290.9,364.4 122.4,103.8 263.3,183.7 418.7,237.3 144,49.8 294.6,74.9 448.5,74.9 18.6,0 37.4,-0.4 56.1,-1.1 l 732.4,-29 c 173.3,-6.8 340.6,-45 497.2,-113.3 150.7,-65.8 284.9,-156.5 398.7,-269.7 113.9,-113.1 201.8,-243.1 261.2,-386.2 61.9,-148.8 90,-304.9 83.7,-464.1 l -413.7,-10467 -13.4,-339.5"
         style="fill:#acd3e2;fill-opacity:1;fill-rule:nonzero;stroke:none"
         id="path50" /><path
         d="m 11033.9,19366.3 c -89.1,95.1 -166,199.9 -228.4,312.3 11.3,-3.5 22.7,-7.1 34.1,-10.7 35.5,-11.5 72.3,-20.8 109.2,-20.8 31.9,0 64,7 95.6,25.7 -5,22 -4.9,37.7 -10.1,42.3 -33.2,29.6 -66.7,58.9 -101.7,84.3 -84.4,61.3 -170.4,118.2 -254,181.3 -14.7,49.9 -26.7,100.8 -36,152.4 7,16.3 16.9,28.6 29.4,32.5 41.2,13 84.7,20.6 127.5,20.6 12.5,0 24.9,-0.7 37.2,-2 120.2,-13.2 239.4,-46.6 359.6,-54.6 129,-8.6 253.5,-37.2 378.1,-83.3 123.4,-45.6 250.1,-75.6 375.7,-109.8 110,-29.8 220.6,-55.2 330.8,-83.8 108.4,-28.2 216.5,-58.1 325.9,-87.6 -32.9,-105.2 -49.3,-139.1 -80.1,-149.1 -78,-25.7 -157.8,-42.7 -234.7,-73.3 -93.7,-37.3 -186.3,-71.7 -281.7,-71.7 -45.6,0 -91.9,7.9 -139.3,27.2 -14.4,5.9 -30.3,8.5 -46.7,8.5 -31.9,0 -65.6,-9.9 -93.9,-24.7 -38.2,-19.8 -74.8,-28.7 -110.9,-28.7 -48.7,0 -96.7,16.1 -146.4,43 -66.3,35.9 -138.9,49.6 -207.5,72.6 -13.6,-47 -17.3,-106.9 -36.8,-119.4 -63.8,-40.8 -128.9,-67.5 -194.9,-83.2 m 12316.4,6736.8 c -65.1,12.5 -127.7,24.7 -190.4,37.3 -137.3,27.6 -254.7,108.5 -358.2,273.4 48.6,34.8 98.3,49 145.6,49 36.8,0 72.2,-8.6 104.6,-22.9 57.6,-25.5 115.5,-41.3 173.7,-52.9 l 124.7,-283.9"
         style="fill:#c3dee1;fill-opacity:1;fill-rule:nonzero;stroke:none"
         id="path52" /><path
         d="m 12325.6,18820.7 c -24.5,0 -49.1,0.5 -73.7,1.5 -488.1,19.3 -920.9,227.4 -1218,544.1 66,15.7 131.1,42.4 194.9,83.2 19.5,12.5 23.2,72.4 36.8,119.4 68.6,-23 141.2,-36.7 207.5,-72.6 49.7,-26.9 97.7,-43 146.4,-43 36.1,0 72.7,8.9 110.9,28.7 28.3,14.8 62,24.7 93.9,24.7 16.4,0 32.3,-2.6 46.7,-8.5 47.4,-19.3 93.7,-27.2 139.3,-27.2 95.4,0 188,34.4 281.7,71.7 76.9,30.6 156.7,47.6 234.7,73.3 30.8,10 47.2,43.9 80.1,149.1 -109.4,29.5 -217.5,59.4 -325.9,87.6 -110.2,28.6 -220.8,54 -330.8,83.8 -125.6,34.2 -252.3,64.2 -375.7,109.8 -124.6,46.1 -249.1,74.7 -378.1,83.3 -120.2,8 -239.4,41.4 -359.6,54.6 -12.3,1.3 -24.7,2 -37.2,2 -42.8,0 -86.3,-7.6 -127.5,-20.6 -12.5,-3.9 -22.4,-16.2 -29.4,-32.5 -18,100.6 -25.4,204.1 -21.2,309.6 32.9,834.1 779.2,1488.3 1679.6,1488.3 24.4,0 49,-0.5 73.7,-1.5 221.9,-8.8 432.4,-56.7 624,-136 l 51.6,43 1764.2,1472.8 155.4,129.8 c -47.9,153.6 -70.8,316.5 -64.1,484.4 32.9,834 779.3,1488.2 1679.6,1488.2 24.4,0 49,-0.5 73.7,-1.4 197,-7.8 384.9,-46.5 558.6,-110.5 l 50.1,60 1850.5,2216.4 202.6,242.7 c -66.8,177 -99.8,367.7 -92,565.4 33,834 779.3,1488.2 1679.6,1488.2 24.5,0 49.1,-0.5 73.7,-1.4 933,-36.9 1664.4,-763.9 1630.5,-1620.6 -4.6,-118.1 -23.7,-232.6 -55.4,-342.1 l 668.3,-1521.4 c -58.2,11.6 -116.1,27.4 -173.7,52.9 -32.4,14.3 -67.8,22.9 -104.6,22.9 -47.3,0 -97,-14.2 -145.6,-49 103.5,-164.9 220.9,-245.8 358.2,-273.4 62.7,-12.6 125.3,-24.8 190.4,-37.3 l 1764.6,-4017.6 8.7,-19.9 c 337.1,-66 636.6,-223.5 867.2,-441.9 l 79.5,22.1 1228.2,341.2 c -3.7,52.3 -4.6,105.2 -2.5,158.6 33,834 779.3,1488.2 1679.6,1488.2 24.5,0 49.1,-0.5 73.7,-1.4 933,-36.9 1664.4,-763.9 1630.5,-1620.6 -32.9,-834 -779.3,-1488.2 -1679.6,-1488.2 -24.4,0 -49,0.5 -73.7,1.4 -440.5,17.4 -836,188.8 -1127.3,454.9 l -142.6,-39.6 -1185.2,-329.4 c 2.3,-43.9 2.7,-88.2 1,-132.9 -33,-834 -779.3,-1488.2 -1679.6,-1488.2 -24.5,0 -49.1,0.5 -73.7,1.4 -933,36.9 -1664.4,763.9 -1630.5,1620.6 21.6,548.2 351.5,1018.7 830.7,1276.8 l -2216,5045.3 c -231.4,-109.8 -493.5,-171.6 -770.2,-171.6 -24.4,0 -49,0.5 -73.7,1.4 -271.7,10.8 -526.4,80.2 -750,194.2 l -43.2,-51.7 -1850.5,-2216.5 -111.6,-133.6 c 128.3,-229.8 196.4,-491.4 185.5,-766.4 -33,-834 -779.3,-1488.2 -1679.6,-1488.2 -24.5,0 -49.1,0.4 -73.7,1.4 -313.2,12.4 -603.6,102.6 -850.1,249.4 l -66.6,-55.7 -1764.2,-1472.7 -5.7,-4.8 c 108.8,-215.8 165.5,-457.3 155.5,-710.1 -33,-834.1 -779.3,-1488.3 -1679.6,-1488.3 m -1376.8,826.4 c -36.9,0 -73.7,9.3 -109.2,20.8 -11.4,3.6 -22.8,7.2 -34.1,10.7 -53.2,95.6 -96,196.8 -126.9,302.1 83.6,-63.1 169.6,-120 254,-181.3 35,-25.4 68.5,-54.7 101.7,-84.3 5.2,-4.6 5.1,-20.3 10.1,-42.3 -31.6,-18.7 -63.7,-25.7 -95.6,-25.7"
         style="fill:#acd3e2;fill-opacity:1;fill-rule:nonzero;stroke:none"
         id="path54" /><path
         d="m 10242.8,8616.3 v 9249 c 0,570.2 463.9,1034.2 1034.1,1034.2 h 871.8 c 570.2,0 1034.1,-464 1034.1,-1034.2 v -9249 h -2940"
         style="fill:#fccf6e;fill-opacity:1;fill-rule:nonzero;stroke:none"
         id="path56" /><path
         d="m 12148.7,19084.5 h -871.8 c -672.2,0 -1219.1,-547 -1219.1,-1219.2 v -9064 -370 h 370 2570 370 v 370 9064 c 0,672.2 -546.9,1219.2 -1219.1,1219.2 z m 0,-370 c 467,0 849.1,-382.2 849.1,-849.2 v -9064 h -2570 v 9064 c 0,467 382.1,849.2 849.1,849.2 h 871.8"
         style="fill:#3c5696;fill-opacity:1;fill-rule:nonzero;stroke:none"
         id="path58" /><path
         d="m 14386.4,8616.3 v 13124.2 c 0,631.5 513.7,1145.2 1145.2,1145.2 h 649.6 c 631.5,0 1145.2,-513.7 1145.2,-1145.2 V 8616.3 h -2940"
         style="fill:#aee5f8;fill-opacity:1;fill-rule:nonzero;stroke:none"
         id="path60" /><path
         d="m 16181.2,23070.7 h -649.6 c -179.1,0 -353.2,-35.4 -517.5,-105.2 -158.2,-67.2 -300.2,-163.2 -422.3,-285.2 -122.1,-122.1 -218,-264.2 -285.2,-422.3 -69.8,-164.4 -105.2,-338.5 -105.2,-517.5 v -12939.2 -370 h 370 2570 370 v 370 12939.2 c 0,179 -35.4,353.1 -105.2,517.5 -67.2,158.1 -163.1,300.2 -285.2,422.3 -122.1,122 -264.1,218 -422.3,285.2 -164.3,69.8 -338.4,105.2 -517.5,105.2 z m 0,-370 c 528.1,0 960.2,-432.1 960.2,-960.2 V 8801.3 h -2570 v 12939.2 c 0,528.1 432.1,960.2 960.2,960.2 h 649.6"
         style="fill:#3c5696;fill-opacity:1;fill-rule:nonzero;stroke:none"
         id="path62" /><path
         d="m 18530,8616.3 v 17551.6 c 0,696.7 566.7,1263.5 1263.4,1263.5 h 413.2 c 696.7,0 1263.4,-566.8 1263.4,-1263.5 V 8616.3 h -2940"
         style="fill:#fccf6e;fill-opacity:1;fill-rule:nonzero;stroke:none"
         id="path64" /><path
         d="m 20000,28367.3 h -413.2 c -194.9,0 -384.5,-38.6 -563.4,-114.6 -172.2,-73.1 -326.9,-177.6 -459.9,-310.6 -132.9,-133 -237.4,-287.7 -310.6,-459.9 -76,-178.9 -114.5,-368.5 -114.5,-563.4 v -17366.6 -370 h 370 2570 370 v 370 17366.6 c 0,194.9 -38.5,384.5 -114.5,563.4 -73.2,172.2 -177.7,326.9 -310.6,459.9 -133,133 -287.7,237.5 -459.9,310.6 -178.9,76 -368.5,114.6 -563.4,114.6 z m 0,-370 c 593.1,0 1078.4,-485.3 1078.4,-1078.5 V 9552.2 h -2570 v 17366.6 c 0,593.2 485.3,1078.5 1078.4,1078.5 h 413.2"
         style="fill:#3c5696;fill-opacity:1;fill-rule:nonzero;stroke:none"
         id="path66" /><path
         d="m 22673.6,8616.3 v 9808.6 c 0,579.8 471.6,1051.5 1051.4,1051.5 h 837.2 c 579.7,0 1051.4,-471.7 1051.4,-1051.5 V 8616.3 h -2940"
         style="fill:#aee5f8;fill-opacity:1;fill-rule:nonzero;stroke:none"
         id="path68" /><path
         d="M 24562.2,19661.4 H 23725 c -681.8,0 -1236.4,-554.7 -1236.4,-1236.5 v -9623.6 -370 h 370 2570 370 v 370 9623.6 c 0,681.8 -554.6,1236.5 -1236.4,1236.5 z m 0,-370 c 476.5,0 866.4,-389.9 866.4,-866.5 V 8801.3 h -2570 v 9623.6 c 0,476.6 389.9,866.5 866.4,866.5 h 837.2"
         style="fill:#3c5696;fill-opacity:1;fill-rule:nonzero;stroke:none"
         id="path70" /><path
         d="m 26817.2,8616.3 v 11592.3 c 0,608.5 495,1103.6 1103.5,1103.6 h 732.9 c 608.6,0 1103.6,-495.1 1103.6,-1103.6 V 8616.3 h -2940"
         style="fill:#fccf6e;fill-opacity:1;fill-rule:nonzero;stroke:none"
         id="path72" /><path
         d="m 28653.6,21497.2 h -732.9 c -173.4,0 -342.1,-34.3 -501.3,-102 -153.2,-65 -290.8,-158 -409,-276.2 -118.3,-118.3 -211.2,-255.9 -276.3,-409.1 -67.6,-159.2 -101.9,-327.9 -101.9,-501.3 v -11407.3 -370 h 370 2570 370 v 370 11407.3 c 0,173.4 -34.3,342.1 -101.9,501.3 -65.1,153.2 -158,290.8 -276.3,409.1 -118.2,118.2 -255.8,211.2 -409,276.2 -159.2,67.7 -327.9,102 -501.4,102 z m 0,-370 c 505.3,0 918.6,-413.4 918.6,-918.6 V 8801.3 h -2570 v 11407.3 c 0,505.2 413.3,918.6 918.5,918.6 h 732.9"
         style="fill:#3c5696;fill-opacity:1;fill-rule:nonzero;stroke:none"
         id="path74" /><path
         d="m 11712.8,19355.6 c -831.6,0 -1508.2,676.6 -1508.2,1508.3 0,831.6 676.6,1508.2 1508.2,1508.2 831.6,0 1508.2,-676.6 1508.2,-1508.2 0,-831.7 -676.6,-1508.3 -1508.2,-1508.3"
         style="fill:#f57b8f;fill-opacity:1;fill-rule:nonzero;stroke:none"
         id="path76" /><path
         d="m 11712.8,22557.1 c -933.6,0 -1693.2,-759.6 -1693.2,-1693.2 0,-933.7 759.6,-1693.3 1693.2,-1693.3 933.7,0 1693.2,759.6 1693.2,1693.3 0,933.6 -759.5,1693.2 -1693.2,1693.2 z m 0,-370 c 729.6,0 1323.2,-593.6 1323.2,-1323.2 0,-729.7 -593.6,-1323.3 -1323.2,-1323.3 -729.6,0 -1323.2,593.6 -1323.2,1323.3 0,729.6 593.6,1323.2 1323.2,1323.2"
         style="fill:#3c5696;fill-opacity:1;fill-rule:nonzero;stroke:none"
         id="path78" /><path
         d="m 11712.8,20178 c -378.2,0 -685.8,307.7 -685.8,685.9 0,378.1 307.6,685.8 685.8,685.8 378.2,0 685.8,-307.7 685.8,-685.8 0,-378.2 -307.6,-685.9 -685.8,-685.9"
         style="fill:#ffffff;fill-opacity:1;fill-rule:nonzero;stroke:none"
         id="path80" /><path
         d="m 11712.8,21734.7 c -480.2,0 -870.8,-390.7 -870.8,-870.8 0,-480.2 390.6,-870.9 870.8,-870.9 480.2,0 870.8,390.7 870.8,870.9 0,480.1 -390.6,870.8 -870.8,870.8 z m 0,-370 c 276.2,0 500.8,-224.7 500.8,-500.8 0,-276.2 -224.6,-500.9 -500.8,-500.9 -276.2,0 -500.8,224.7 -500.8,500.9 0,276.1 224.6,500.8 500.8,500.8"
         style="fill:#3c5696;fill-opacity:1;fill-rule:nonzero;stroke:none"
         id="path82" /><path
         d="m 15856.4,23327.4 c -831.6,0 -1508.2,676.6 -1508.2,1508.2 0,831.6 676.6,1508.2 1508.2,1508.2 831.6,0 1508.2,-676.6 1508.2,-1508.2 0,-831.6 -676.6,-1508.2 -1508.2,-1508.2"
         style="fill:#f57b8f;fill-opacity:1;fill-rule:nonzero;stroke:none"
         id="path84" /><path
         d="m 15856.4,26528.8 c -933.6,0 -1693.2,-759.5 -1693.2,-1693.2 0,-933.6 759.6,-1693.2 1693.2,-1693.2 933.7,0 1693.2,759.6 1693.2,1693.2 0,933.7 -759.5,1693.2 -1693.2,1693.2 z m 0,-370 c 729.6,0 1323.2,-593.6 1323.2,-1323.2 0,-729.6 -593.6,-1323.2 -1323.2,-1323.2 -729.6,0 -1323.2,593.6 -1323.2,1323.2 0,729.6 593.6,1323.2 1323.2,1323.2"
         style="fill:#3c5696;fill-opacity:1;fill-rule:nonzero;stroke:none"
         id="path86" /><path
         d="m 15856.4,24149.8 c -378.2,0 -685.8,307.6 -685.8,685.8 0,378.2 307.6,685.8 685.8,685.8 378.2,0 685.8,-307.6 685.8,-685.8 0,-378.2 -307.6,-685.8 -685.8,-685.8"
         style="fill:#ffffff;fill-opacity:1;fill-rule:nonzero;stroke:none"
         id="path88" /><path
         d="m 15856.4,25706.4 c -480.2,0 -870.8,-390.6 -870.8,-870.8 0,-480.2 390.6,-870.8 870.8,-870.8 480.2,0 870.8,390.6 870.8,870.8 0,480.2 -390.6,870.8 -870.8,870.8 z m 0,-370 c 276.2,0 500.8,-224.6 500.8,-500.8 0,-276.2 -224.6,-500.8 -500.8,-500.8 -276.2,0 -500.8,224.6 -500.8,500.8 0,276.2 224.6,500.8 500.8,500.8"
         style="fill:#3c5696;fill-opacity:1;fill-rule:nonzero;stroke:none"
         id="path90" /><path
         d="m 12389.5,22223.4 1968.3,1938 577,-586 -1968.3,-1938 -577,586"
         style="fill:#aee5f8;fill-opacity:1;fill-rule:nonzero;stroke:none"
         id="path92" /><path
         d="m 14359.8,24423 -263.6,-259.6 -1704.7,-1678.4 -263.6,-259.6 259.6,-263.7 317.4,-322.3 259.6,-263.7 263.6,259.6 1704.7,1678.4 263.6,259.6 -259.6,263.7 -317.4,322.3 z m -4,-523.2 317.4,-322.4 -1704.7,-1678.4 -317.4,322.3 1704.7,1678.5"
         style="fill:#3c5696;fill-opacity:1;fill-rule:nonzero;stroke:none"
         id="path94" /><path
         d="m 16510.9,26242.2 1975.1,2793.5 671.5,-474.7 -1975.1,-2793.6 -671.5,474.8"
         style="fill:#aee5f8;fill-opacity:1;fill-rule:nonzero;stroke:none"
         id="path96" /><path
         d="m 18441.8,29293.6 -213.6,-302.1 -1761.6,-2491.4 -213.6,-302.1 302.1,-213.6 369.4,-261.2 302.1,-213.6 213.6,302.1 1761.6,2491.4 213.6,302.1 -302.1,213.6 -369.4,261.2 z m 88.5,-515.7 369.4,-261.2 -1761.6,-2491.4 -369.4,261.2 1761.6,2491.4"
         style="fill:#3c5696;fill-opacity:1;fill-rule:nonzero;stroke:none"
         id="path98" /><path
         d="m 20496.6,29616.3 765.9,300.6 3084.7,-6894.7 -765.9,-300.6 -3084.7,6894.7"
         style="fill:#aee5f8;fill-opacity:1;fill-rule:nonzero;stroke:none"
         id="path100" /><path
         d="m 21359.3,30153.7 -328.8,-129.1 -421.1,-165.3 -360.8,-141.6 158.3,-353.9 2933.5,-6556.6 144.2,-322.3 328.7,129 421.1,165.3 360.9,141.7 -158.4,353.8 -2933.4,6556.6 z m -193.6,-473.5 2933.5,-6556.6 -421.1,-165.3 -2933.5,6556.6 421.1,165.3"
         style="fill:#3c5696;fill-opacity:1;fill-rule:nonzero;stroke:none"
         id="path102" /><path
         d="m 25295.4,22601.7 1568.7,548.2 271.3,-776.3 -1568.7,-548.3 -271.3,776.4"
         style="fill:#aee5f8;fill-opacity:1;fill-rule:nonzero;stroke:none"
         id="path104" /><path
         d="m 26977.7,23385.6 -349.3,-122.1 -1219.4,-426.1 -349.3,-122.1 122.1,-349.3 149.2,-427.1 122.1,-349.2 349.2,122 1219.5,426.2 349.3,122.1 -122.1,349.2 -149.2,427.1 z m -227.2,-471.4 149.3,-427 -1219.5,-426.2 -149.3,427.1 1219.5,426.1"
         style="fill:#3c5696;fill-opacity:1;fill-rule:nonzero;stroke:none"
         id="path106" /><path
         d="m 24163.6,20075.8 c -831.6,0 -1508.2,676.6 -1508.2,1508.2 0,831.6 676.6,1508.2 1508.2,1508.2 831.6,0 1508.2,-676.6 1508.2,-1508.2 0,-831.6 -676.6,-1508.2 -1508.2,-1508.2"
         style="fill:#f57b8f;fill-opacity:1;fill-rule:nonzero;stroke:none"
         id="path108" /><path
         d="m 24163.6,23277.2 c -933.7,0 -1693.2,-759.5 -1693.2,-1693.2 0,-933.6 759.5,-1693.2 1693.2,-1693.2 933.6,0 1693.2,759.6 1693.2,1693.2 0,933.7 -759.6,1693.2 -1693.2,1693.2 z m 0,-370 c 729.6,0 1323.2,-593.6 1323.2,-1323.2 0,-729.6 -593.6,-1323.2 -1323.2,-1323.2 -729.6,0 -1323.2,593.6 -1323.2,1323.2 0,729.6 593.6,1323.2 1323.2,1323.2"
         style="fill:#3c5696;fill-opacity:1;fill-rule:nonzero;stroke:none"
         id="path110" /><path
         d="m 24163.6,20898.2 c -378.2,0 -685.8,307.6 -685.8,685.8 0,378.2 307.6,685.8 685.8,685.8 378.2,0 685.8,-307.6 685.8,-685.8 0,-378.2 -307.6,-685.8 -685.8,-685.8"
         style="fill:#ffffff;fill-opacity:1;fill-rule:nonzero;stroke:none"
         id="path112" /><path
         d="m 24163.6,22454.8 c -480.2,0 -870.8,-390.6 -870.8,-870.8 0,-480.2 390.6,-870.8 870.8,-870.8 480.2,0 870.8,390.6 870.8,870.8 0,480.2 -390.6,870.8 -870.8,870.8 z m 0,-370 c 276.2,0 500.8,-224.6 500.8,-500.8 0,-276.2 -224.6,-500.8 -500.8,-500.8 -276.2,0 -500.8,224.6 -500.8,500.8 0,276.2 224.6,500.8 500.8,500.8"
         style="fill:#3c5696;fill-opacity:1;fill-rule:nonzero;stroke:none"
         id="path114" /><path
         d="m 28307.2,21925.7 c -831.6,0 -1508.2,676.6 -1508.2,1508.2 0,831.7 676.6,1508.2 1508.2,1508.2 831.6,0 1508.2,-676.5 1508.2,-1508.2 0,-831.6 -676.6,-1508.2 -1508.2,-1508.2"
         style="fill:#f57b8f;fill-opacity:1;fill-rule:nonzero;stroke:none"
         id="path116" /><path
         d="m 28307.2,25127.1 c -933.7,0 -1693.2,-759.5 -1693.2,-1693.2 0,-933.6 759.5,-1693.2 1693.2,-1693.2 933.6,0 1693.2,759.6 1693.2,1693.2 0,933.7 -759.6,1693.2 -1693.2,1693.2 z m 0,-370 c 729.6,0 1323.2,-593.5 1323.2,-1323.2 0,-729.6 -593.6,-1323.2 -1323.2,-1323.2 -729.6,0 -1323.2,593.6 -1323.2,1323.2 0,729.7 593.6,1323.2 1323.2,1323.2"
         style="fill:#3c5696;fill-opacity:1;fill-rule:nonzero;stroke:none"
         id="path118" /><path
         d="m 28307.2,22748.1 c -378.2,0 -685.8,307.7 -685.8,685.8 0,378.2 307.6,685.9 685.8,685.9 378.2,0 685.8,-307.7 685.8,-685.9 0,-378.1 -307.6,-685.8 -685.8,-685.8"
         style="fill:#ffffff;fill-opacity:1;fill-rule:nonzero;stroke:none"
         id="path120" /><path
         d="m 28307.2,24304.8 c -480.2,0 -870.8,-390.7 -870.8,-870.9 0,-480.2 390.6,-870.8 870.8,-870.8 480.2,0 870.8,390.6 870.8,870.8 0,480.2 -390.6,870.9 -870.8,870.9 z m 0,-370 c 276.2,0 500.8,-224.7 500.8,-500.9 0,-276.1 -224.6,-500.8 -500.8,-500.8 -276.2,0 -500.8,224.7 -500.8,500.8 0,276.2 224.6,500.9 500.8,500.9"
         style="fill:#3c5696;fill-opacity:1;fill-rule:nonzero;stroke:none"
         id="path122" /><path
         d="m 20000,28367.3 c -831.6,0 -1508.2,676.5 -1508.2,1508.2 0,831.6 676.6,1508.2 1508.2,1508.2 831.6,0 1508.2,-676.6 1508.2,-1508.2 0,-831.7 -676.6,-1508.2 -1508.2,-1508.2"
         style="fill:#f57b8f;fill-opacity:1;fill-rule:nonzero;stroke:none"
         id="path124" /><path
         d="m 20000,31568.7 c -933.6,0 -1693.2,-759.6 -1693.2,-1693.2 0,-933.7 759.6,-1693.2 1693.2,-1693.2 933.6,0 1693.2,759.5 1693.2,1693.2 0,933.6 -759.6,1693.2 -1693.2,1693.2 z m 0,-370 c 729.6,0 1323.2,-593.6 1323.2,-1323.2 0,-729.6 -593.6,-1323.2 -1323.2,-1323.2 -729.6,0 -1323.2,593.6 -1323.2,1323.2 0,729.6 593.6,1323.2 1323.2,1323.2"
         style="fill:#3c5696;fill-opacity:1;fill-rule:nonzero;stroke:none"
         id="path126" /><path
         d="m 20000,29189.6 c -378.2,0 -685.8,307.7 -685.8,685.9 0,378.2 307.6,685.8 685.8,685.8 378.2,0 685.8,-307.6 685.8,-685.8 0,-378.2 -307.6,-685.9 -685.8,-685.9"
         style="fill:#ffffff;fill-opacity:1;fill-rule:nonzero;stroke:none"
         id="path128" /><path
         d="m 20000,30746.3 c -480.2,0 -870.8,-390.6 -870.8,-870.8 0,-480.2 390.6,-870.9 870.8,-870.9 480.2,0 870.8,390.7 870.8,870.9 0,480.2 -390.6,870.8 -870.8,870.8 z m 0,-370 c 276.2,0 500.8,-224.7 500.8,-500.8 0,-276.2 -224.6,-500.9 -500.8,-500.9 -276.2,0 -500.8,224.7 -500.8,500.9 0,276.1 224.6,500.8 500.8,500.8"
         style="fill:#3c5696;fill-opacity:1;fill-rule:nonzero;stroke:none"
         id="path130" /></g></g></svg>
